# xmcd
#
# Track frame offsets: 
#        150
#        14733
#        31586
#        47441
#        60013
#        80203
#        95744
#        107705
#        140544
#        158176
#        182240
#        201845
#
# Disc length: 2928 seconds
#
# Revision: 0
# Processed by: cddbd v1.5.2PL0 Copyright (c) Steve Scherf et al.
# Submitted via: ExactAudioCopy v0.99pb5
#
DISCID=9c0b6e0c
DTITLE=Jamey Johnson - The Guitar Song - Black Album
DYEAR=2010
DGENRE=Country
TTITLE0=Lonely At The Top
TTITLE1=Cover Your Eyes
TTITLE2=Poor Man Blues
TTITLE3=Set 'Em Up Joe
TTITLE4=Playing The Part
TTITLE5=Baby Don't Cry
TTITLE6=Heaven Bound
TTITLE7=Can't Cash My Checks
TTITLE8=That's How I Don't Love You
TTITLE9=Heartache
TTITLE10=Mental Revenge
TTITLE11=Even The Skies Are Blue
EXTD=
EXTT0=
EXTT1=
EXTT2=
EXTT3=
EXTT4=
EXTT5=
EXTT6=
EXTT7=
EXTT8=
EXTT9=
EXTT10=
EXTT11=
PLAYORDER=
